<svg xmlns="http://www.w3.org/2000/svg" xmlns:xlink="http://www.w3.org/1999/xlink" width="32" height="31" viewBox="0 0 32 31">
    <defs>
        <path id="a" d="M13.643 1.73l-3.39 6.974a.595.595 0 0 1-.233.172L2.44 9.994c-2.522.373-3.249 2.64-1.423 4.448l5.485 5.429a.594.594 0 0 1 .088.277l-1.293 7.666c-.432 2.55 1.467 3.954 3.726 2.748l6.783-3.591c.024-.013.082-.046.146-.046L16 0c-.868-.001-1.793.57-2.357 1.73z"/>
    </defs>
    <g fill="none" fill-rule="evenodd">
        <path fill="#D5D5D5" d="M16.055 0c.872 0 1.688.57 2.254 1.731l3.403 6.975a.598.598 0 0 0 .233.171l7.606 1.118c2.531.373 3.26 2.639 1.428 4.448l-5.504 5.428a.622.622 0 0 0-.089.277l1.3 7.666c.432 2.55-1.474 3.953-3.74 2.748l-6.802-3.62a.616.616 0 0 0-.288 0l-6.803 3.62c-2.264 1.204-4.17-.195-3.739-2.748l1.3-7.666a.63.63 0 0 0-.089-.277l-5.504-5.428C-.81 12.636-.084 10.368 2.45 9.995l7.606-1.118a.598.598 0 0 0 .233-.171L13.69 1.73C14.255.571 15.183 0 16.055 0"/>
        <mask id="b" fill="#fff">
            <use xlink:href="#a"/>
        </mask>
        <path fill="#FFDA00" d="M-5 36.167h42V-5.167H-5z" mask="url(#b)"/>
    </g>
</svg>
