<svg xmlns="http://www.w3.org/2000/svg" width="32" height="31" viewBox="0 0 32 31">
    <path fill="#D5D5D5" fill-rule="evenodd" d="M9.053 30.562c-2.264 1.204-4.171-.195-3.738-2.747l1.299-7.664a.621.621 0 0 0-.09-.277l-5.503-5.426C-.81 12.642-.084 10.375 2.45 10.002l7.606-1.118a.602.602 0 0 0 .233-.17L13.69 1.74c1.133-2.32 3.488-2.322 4.62 0l3.403 6.972a.613.613 0 0 0 .233.171l7.606 1.118c2.532.373 3.26 2.638 1.428 4.446l-5.504 5.426a.624.624 0 0 0-.089.277l1.3 7.664c.432 2.55-1.474 3.952-3.74 2.747l-6.802-3.618a.602.602 0 0 0-.288 0l-6.803 3.618z"/>
</svg>
